<?xml version="1.0" standalone="no"?>
<!DOCTYPE svg PUBLIC "-//W3C//DTD SVG 20010904//EN"
 "http://www.w3.org/TR/2001/REC-SVG-20010904/DTD/svg10.dtd">
<svg version="1.0" xmlns="http://www.w3.org/2000/svg"
 width="337.000000pt" height="70.000000pt" viewBox="0 0 337.000000 70.000000"
 preserveAspectRatio="xMidYMid meet">

<g transform="translate(0.000000,70.000000) scale(0.100000,-0.100000)"
fill="#000000" stroke="none">
<path d="M0 350 l0 -350 183 1 c100 1 173 4 162 6 -26 7 -55 33 -66 60 -6 15
-14 20 -29 16 -31 -8 -79 16 -96 48 -12 24 -21 29 -50 29 -26 0 -43 8 -65 29
-29 29 -29 29 -29 156 0 71 5 135 11 147 13 24 74 51 99 43 13 -4 20 0 25 14
10 33 54 61 95 61 32 0 39 4 44 25 7 28 52 55 91 55 16 0 38 -12 56 -29 27
-28 29 -34 29 -110 l0 -81 174 0 c130 0 175 -3 178 -12 13 -35 0 -38 -203 -38
l-199 0 0 88 c0 99 -11 126 -51 120 l-24 -3 -3 -269 c-2 -278 0 -296 39 -296
28 0 33 17 39 120 5 87 7 95 25 95 18 0 20 -8 23 -94 3 -111 -8 -148 -52 -167
-27 -11 8 -13 259 -13 260 0 287 1 257 14 -42 18 -62 65 -62 145 l0 60 -162 0
c-90 0 -169 4 -176 9 -8 5 -12 17 -10 27 3 18 15 19 203 19 l200 0 3 -94 c3
-98 11 -121 43 -121 35 0 39 32 39 287 0 269 -3 288 -51 281 -23 -3 -24 -6
-29 -103 -4 -88 -7 -100 -24 -103 -28 -6 -36 15 -36 101 0 116 32 167 104 167
28 0 72 -33 81 -60 5 -16 15 -20 46 -20 42 0 89 -34 89 -63 0 -10 12 -14 40
-13 31 0 46 -5 67 -27 26 -26 28 -34 31 -128 2 -55 1 -116 -3 -136 -9 -52 -45
-83 -95 -83 -28 0 -40 -4 -40 -14 0 -8 -14 -26 -32 -41 -23 -20 -40 -26 -63
-23 -27 3 -34 -1 -45 -25 -7 -16 -27 -35 -44 -43 -26 -11 149 -13 1172 -14
l1202 0 0 350 0 350 -1685 0 -1685 0 0 -350z m1554 129 c14 -7 32 -26 40 -43
15 -31 15 -31 -12 -34 -19 -3 -31 3 -41 17 -18 29 -65 28 -85 -1 -9 -12 -16
-43 -16 -68 0 -71 36 -108 88 -89 33 12 29 47 -5 51 -20 2 -28 9 -28 23 0 18
7 20 55 20 l55 0 3 -57 c3 -54 2 -58 -27 -72 -17 -9 -53 -16 -80 -16 -42 0
-56 5 -83 29 -32 29 -33 31 -33 111 0 80 1 82 33 111 35 32 90 39 136 18z
m155 -44 c13 -30 26 -55 30 -55 4 0 19 25 34 55 24 49 30 55 57 55 16 0 30 -3
30 -6 0 -3 -20 -43 -45 -88 -37 -68 -45 -92 -45 -135 0 -50 -1 -51 -30 -51
-29 0 -30 1 -30 50 0 40 -10 69 -45 140 l-45 90 33 0 c31 0 35 -4 56 -55z
m283 -35 c28 -80 48 -119 48 -93 0 7 14 50 31 97 l31 86 39 0 39 0 0 -140 0
-140 -30 0 -29 0 -3 88 -3 87 -31 -85 c-26 -73 -33 -85 -53 -85 -20 0 -28 12
-56 90 l-34 90 0 -92 -1 -93 -30 0 -30 0 0 141 0 140 41 -3 42 -3 29 -85z
m409 75 c52 -27 63 -87 25 -132 -19 -21 -35 -28 -77 -33 l-54 -5 -3 -47 c-3
-46 -5 -48 -33 -48 l-29 0 0 140 0 140 70 0 c45 0 82 -6 101 -15z m271 -14
c32 -29 33 -32 33 -109 0 -71 -3 -83 -24 -106 -68 -72 -183 -36 -201 63 -19
103 31 181 116 181 34 0 51 -6 76 -29z m148 -111 l0 -140 -30 0 -30 0 0 140 0
140 30 0 30 0 0 -140z m155 54 l50 -85 3 85 3 86 29 0 30 0 0 -140 0 -140 -29
0 c-26 0 -35 9 -83 88 l-53 87 -3 -87 -3 -88 -29 0 -30 0 0 140 0 140 33 0
c30 0 36 -6 82 -86z m373 59 c3 -21 -1 -23 -42 -23 l-46 0 0 -115 0 -115 -30
0 -30 0 0 115 0 115 -40 0 c-36 0 -40 2 -40 25 l0 26 113 -3 c108 -3 112 -4
115 -25z m-2430 -109 c4 -26 -26 -40 -45 -21 -8 7 -11 21 -7 31 9 24 48 17 52
-10z m-463 -14 c0 -38 -39 -35 -43 3 -3 25 0 28 20 25 17 -2 23 -9 23 -28z"/>
<path d="M2290 400 c0 -40 0 -40 39 -40 49 0 69 20 53 55 -10 21 -19 25 -52
25 l-40 0 0 -40z"/>
<path d="M2557 422 c-19 -21 -23 -111 -7 -143 15 -26 75 -26 90 0 18 34 12
126 -8 144 -24 22 -55 21 -75 -1z"/>
<path d="M211 546 c-8 -9 -11 -73 -9 -207 l3 -194 30 0 30 0 3 194 c2 194 -2
221 -33 221 -7 0 -18 -6 -24 -14z"/>
<path d="M1065 544 c-13 -14 -15 -43 -13 -201 3 -164 5 -187 21 -197 12 -8 22
-8 35 0 15 10 17 33 20 199 2 188 -2 215 -34 215 -7 0 -20 -7 -29 -16z"/>
<path d="M70 461 c-5 -11 -10 -63 -10 -115 0 -83 3 -99 20 -116 16 -16 25 -18
40 -10 18 10 20 21 20 123 0 75 -4 117 -12 125 -18 18 -46 14 -58 -7z"/>
<path d="M1190 454 c-6 -14 -10 -66 -10 -115 0 -76 3 -92 20 -109 16 -16 25
-18 40 -10 18 10 20 21 20 123 0 75 -4 117 -12 125 -20 20 -48 14 -58 -14z"/>
</g>
</svg>
